<?xml version="1.0" encoding="UTF-8"?>
<svg width="16px" height="16px" viewBox="0 0 16 16" version="1.1" xmlns="http://www.w3.org/2000/svg" xmlns:xlink="http://www.w3.org/1999/xlink">
    <!-- Generator: Sketch 64 (93537) - https://sketch.com -->
    <title>女</title>
    <desc>Created with Sketch.</desc>
    <g id="Page-1" stroke="none" stroke-width="1" fill="none" fill-rule="evenodd">
        <g id="详情" transform="translate(-256.000000, -286.000000)" fill-rule="nonzero">
            <g id="女" transform="translate(256.000000, 286.000000)">
                <g id="Group">
                    <rect id="Rectangle" fill="#000000" opacity="0" x="0" y="0" width="16" height="16"></rect>
                    <path d="M13.60468,2.39532 C12.57176,1.36236 11.19836,0.79346 9.73754,0.79346 C8.27672,0.79346 6.90334,1.36234 5.8704,2.39528 C4.83742,3.42824 4.26858,4.80162 4.26858,6.26246 C4.26856,7.45308 4.64656,8.58556 5.34562,9.52302 L4.40492,10.4637 L2.15914,8.21792 C1.84672,7.9055 1.3402,7.9055 1.02778,8.21792 C0.71536,8.53032 0.71536,9.03686 1.02778,9.34928 L3.27356,11.59506 L2.40238,12.46624 C2.08998,12.77864 2.08998,13.28518 2.40238,13.59758 C2.71482,13.91002 3.22134,13.91 3.53376,13.59758 L4.40492,12.72642 L6.65072,14.9722 C6.96312,15.28462 7.46964,15.28462 7.78206,14.9722 C8.0945,14.65978 8.0945,14.15326 7.78206,13.84084 L5.53628,11.59508 L6.47698,10.6544 C7.41446,11.35344 8.54692,11.73146 9.73754,11.73146 C11.19836,11.73146 12.57172,11.16258 13.60468,10.12962 C14.63764,9.09666 15.20652,7.72328 15.20652,6.26246 C15.20652,4.80164 14.63762,3.42824 13.60468,2.39532 Z M12.47332,8.99824 C11.74258,9.72898 10.77098,10.13144 9.73754,10.13144 C8.7041,10.13144 7.73252,9.72898 7.00176,8.99824 C6.271,8.2675 5.86856,7.2959 5.86856,6.26246 C5.86856,5.22898 6.271,4.2574 7.00176,3.52666 C7.7325,2.7959 8.7041,2.39346 9.73754,2.39346 C10.77098,2.39346 11.74258,2.79592 12.47332,3.52668 C13.20406,4.25742 13.60652,5.229 13.60652,6.26244 C13.60652,7.2959 13.2041,8.26748 12.47332,8.99824 Z" id="Shape" fill="#FFFFFF"></path>
                </g>
            </g>
        </g>
    </g>
</svg>