<?xml version="1.0" encoding="UTF-8"?>
<svg width="72px" height="62px" viewBox="0 0 72 62" version="1.1" xmlns="http://www.w3.org/2000/svg" xmlns:xlink="http://www.w3.org/1999/xlink">
    <!-- Generator: Sketch 64 (93537) - https://sketch.com -->
    <title>群聊</title>
    <desc>Created with Sketch.</desc>
    <g id="Page-1" stroke="none" stroke-width="1" fill="none" fill-rule="evenodd">
        <g id="建群" transform="translate(-152.000000, -136.000000)" fill-rule="nonzero">
            <g id="群聊" transform="translate(148.000000, 127.000000)">
                <g id="Group">
                    <rect id="Rectangle" fill="#000000" opacity="0" x="0" y="0" width="80" height="80"></rect>
                    <path d="M39.859375,40.390625 C39.5625,40.390625 39.2578125,40.34375 38.9609375,40.234375 C35.8203125,39.1015625 33.1640625,37.0390625 31.2890625,34.265625 C28.9375,30.7890625 28.078125,26.609375 28.8671875,22.4921875 C29.65625,18.3671875 32.0078125,14.8046875 35.484375,12.453125 C38.953125,10.1015625 43.140625,9.2421875 47.2578125,10.03125 C51.375,10.8203125 54.9453125,13.171875 57.296875,16.6484375 C62.15625,23.8203125 60.2734375,33.6015625 53.1015625,38.46875 C52.046875,39.1875 50.90625,39.765625 49.7109375,40.2109375 C48.34375,40.71875 46.8203125,40.015625 46.3203125,38.640625 C45.8125,37.2734375 46.515625,35.75 47.890625,35.25 C48.6796875,34.9609375 49.4453125,34.5703125 50.140625,34.09375 C54.8984375,30.8671875 56.1484375,24.375 52.921875,19.6171875 C51.359375,17.3125 48.9921875,15.75 46.2578125,15.2265625 C43.53125,14.703125 40.75,15.2734375 38.4453125,16.8359375 C36.140625,18.3984375 34.578125,20.7578125 34.0546875,23.5 C33.53125,26.234375 34.1015625,29.0078125 35.65625,31.3125 C36.8984375,33.1484375 38.6640625,34.515625 40.75,35.2734375 C42.125,35.765625 42.8359375,37.28125 42.3359375,38.65625 C41.953125,39.71875 40.9375,40.390625 39.859375,40.390625 Z M20.25,69.7265625 C18.7890625,69.7265625 17.609375,68.546875 17.609375,67.0859375 C17.609375,56.3203125 22.2421875,43.4921875 44.296875,43.4921875 C48.3515625,43.4921875 51.9921875,43.921875 55.1171875,44.78125 C56.5234375,45.1640625 57.3515625,46.625 56.96875,48.03125 C56.5859375,49.4375 55.1328125,50.2578125 53.71875,49.8828125 C51.046875,49.15625 47.875,48.78125 44.2890625,48.78125 C29.6875,48.78125 22.890625,54.6015625 22.890625,67.09375 C22.8984375,68.546875 21.7109375,69.7265625 20.25,69.7265625 Z M16.8828125,43.9921875 C15.8046875,43.9921875 14.796875,43.328125 14.40625,42.265625 C13.8984375,40.8984375 14.6015625,39.375 15.9765625,38.875 C16.765625,38.5859375 17.5234375,38.1953125 18.2265625,37.71875 C22.984375,34.4921875 24.234375,28 21.0078125,23.2421875 C19.0625,20.375 15.8359375,18.6640625 12.3671875,18.6640625 L12.3515625,18.6640625 C11.3359375,18.6640625 10.328125,18.8125 9.359375,19.109375 C7.96875,19.5390625 6.4921875,18.7421875 6.0625,17.34375 C5.640625,15.9453125 6.4296875,14.46875 7.828125,14.046875 C9.2890625,13.609375 10.8125,13.375 12.34375,13.375 L12.359375,13.375 C17.5859375,13.375 22.453125,15.953125 25.3828125,20.2734375 C27.734375,23.75 28.59375,27.9296875 27.8046875,32.046875 C27.015625,36.171875 24.6640625,39.734375 21.1875,42.0859375 C20.1328125,42.8046875 18.9921875,43.390625 17.796875,43.828125 C17.4921875,43.9375 17.1796875,43.9921875 16.8828125,43.9921875 Z" id="Shape" fill="#272832"></path>
                    <path d="M19.796875,53 C19.6484375,53 19.4921875,52.984375 19.3359375,52.9609375 C17.2578125,52.59375 14.9140625,52.40625 12.375,52.40625 C10.7890625,52.40625 9.265625,52.4765625 7.859375,52.625 C6.3984375,52.75 5.109375,51.7109375 4.9609375,50.265625 C4.8125,48.8125 5.8671875,47.515625 7.3203125,47.3671875 C8.90625,47.2109375 10.6015625,47.125 12.3671875,47.125 C15.21875,47.125 17.8671875,47.3359375 20.25,47.7578125 C21.6875,48.0078125 22.6484375,49.3828125 22.390625,50.8203125 C22.171875,52.09375 21.0546875,53 19.796875,53 L19.796875,53 Z M70.1796875,42.796875 C69.8828125,42.796875 69.578125,42.75 69.28125,42.640625 C66.5390625,41.65625 64.21875,39.8515625 62.5859375,37.4296875 C60.53125,34.3984375 59.78125,30.75 60.46875,27.1484375 C61.1640625,23.5546875 63.2109375,20.4375 66.2421875,18.3828125 C67.6796875,17.40625 69.265625,16.71875 70.953125,16.34375 C72.3828125,16.0390625 73.7890625,16.921875 74.109375,18.3515625 C74.4296875,19.7734375 73.53125,21.1875 72.1015625,21.5078125 C71.0703125,21.734375 70.09375,22.15625 69.203125,22.7578125 C67.3359375,24.0234375 66.078125,25.9375 65.65625,28.140625 C65.2265625,30.3515625 65.6953125,32.59375 66.953125,34.4609375 C67.9609375,35.9453125 69.3828125,37.0546875 71.0703125,37.6640625 C72.4453125,38.15625 73.15625,39.671875 72.6640625,41.046875 C72.2734375,42.1328125 71.2578125,42.796875 70.1796875,42.796875 L70.1796875,42.796875 Z M53.5703125,70.265625 C52.109375,70.265625 50.9296875,69.0859375 50.9296875,67.625 C50.9296875,58.671875 54.640625,47.8828125 72.296875,47.2578125 C73.78125,47.1328125 74.9765625,48.34375 75.03125,49.8046875 C75.078125,51.265625 73.9375,52.4921875 72.484375,52.5390625 C61.390625,52.9296875 56.21875,57.71875 56.21875,67.625 C56.2109375,69.0859375 55.03125,70.265625 53.5703125,70.265625 L53.5703125,70.265625 Z" id="Shape" fill="#272832"></path>
                </g>
            </g>
        </g>
    </g>
</svg>