<?xml version="1.0" encoding="UTF-8"?>
<svg width="96px" height="44px" viewBox="0 0 96 44" version="1.1" xmlns="http://www.w3.org/2000/svg" xmlns:xlink="http://www.w3.org/1999/xlink">
    <!-- Generator: Sketch 64 (93537) - https://sketch.com -->
    <title>火</title>
    <desc>Created with Sketch.</desc>
    <defs>
        <polygon id="path-1" points="0 0.0141343874 10.7557945 0.0141343874 10.7557945 10.7700237 0 10.7700237"></polygon>
        <polygon id="path-3" points="0.0864390773 0.148363636 69.6467104 0.148363636 69.6467104 43.6363123 0.0864390773 43.6363123"></polygon>
        <polygon id="path-5" points="0 0.148363636 30.3049091 0.148363636 30.3049091 43.6363636 0 43.6363636"></polygon>
    </defs>
    <g id="Page-1" stroke="none" stroke-width="1" fill="none" fill-rule="evenodd">
        <g id="登录" transform="translate(-140.000000, -128.000000)">
            <g id="火" transform="translate(140.000000, 128.000000)">
                <path d="M49.0906686,24 C52.1035731,24 54.5454545,21.5576375 54.5454545,18.545214 C54.5454545,15.5327905 52.1035731,13.0909091 49.0906686,13.0909091 C46.0782451,13.0909091 43.6363636,15.5327905 43.6363636,18.545214 C43.6363636,21.5576375 46.0782451,24 49.0906686,24" id="Fill-1" fill="#FFE431"></path>
                <g id="Group-5" transform="translate(0.000000, 13.090909)">
                    <mask id="mask-2" fill="white">
                        <use xlink:href="#path-1"></use>
                    </mask>
                    <g id="Clip-4"></g>
                    <path d="M5.37808696,10.7700237 C8.34820553,10.7700237 10.7557945,8.36196047 10.7557945,5.3918419 C10.7557945,2.42172332 8.34820553,0.0141343874 5.37808696,0.0141343874 C2.40749407,0.0141343874 -9.48616601e-05,2.42172332 -9.48616601e-05,5.3918419 C-9.48616601e-05,8.36196047 2.40749407,10.7700237 5.37808696,10.7700237" id="Fill-3" fill="#FFE431" mask="url(#mask-2)"></path>
                </g>
                <path d="M90.5454545,24 C93.5577452,24 96,21.5576375 96,18.545214 C96,15.5327905 93.5577452,13.0909091 90.5454545,13.0909091 C87.5326829,13.0909091 85.0909091,15.5327905 85.0909091,18.545214 C85.0909091,21.5576375 87.5326829,24 90.5454545,24" id="Fill-6" fill="#FFE431"></path>
                <g id="Group-10" transform="translate(26.181818, 0.000000)">
                    <mask id="mask-4" fill="white">
                        <use xlink:href="#path-3"></use>
                    </mask>
                    <g id="Clip-9"></g>
                    <path d="M65.2158611,34.9049326 L65.2158611,34.8813176 C55.8331311,34.8813176 48.1630307,27.6951786 47.5424825,18.6054674 C47.5601976,18.2117134 47.5727023,17.8164193 47.5727023,17.4185583 C47.5727023,17.3538738 47.568013,17.2897027 47.567492,17.2245048 C47.567492,17.2070503 47.5727023,17.1906225 47.5727023,17.1726545 L47.5727023,4.51400214 C47.5727023,2.11348877 45.5792369,0.148312299 43.1418529,0.148312299 C43.1283061,0.148312299 43.1152803,0.150365775 43.1017335,0.150365775 C43.0881867,0.150365775 43.0751609,0.148312299 43.0616141,0.148312299 C40.6247512,0.148312299 38.6312858,2.11348877 38.6312858,4.51400214 L38.6312858,17.1726545 C38.6312858,17.1906225 38.635454,17.2070503 38.635975,17.2245048 C38.635454,17.2897027 38.6312858,17.3538738 38.6312858,17.4185583 C38.6312858,17.8164193 38.6432695,18.2117134 38.6609845,18.6054674 C38.0409574,27.6951786 30.370336,34.8813176 20.987606,34.8813176 L20.987606,34.9049326 C20.9229981,34.9049326 20.8599533,34.9121198 20.7953455,34.9146866 C20.7312586,34.9121198 20.6682138,34.9049326 20.603606,34.9049326 L20.603606,34.8813176 C16.3202084,34.8813176 12.3937172,33.383307 9.33109579,30.8909005 L9.33057476,30.8924406 C8.43283799,30.0905583 7.76122877,30.1095529 6.07829796,31.0505583 C4.61680543,31.8683551 1.11964396,33.5665797 0.0864390773,34.0655743 C4.8533536,39.7588364 12.0128434,43.4366118 20.0502708,43.5988364 C20.2321107,43.6214246 20.4160347,43.6363123 20.603606,43.6363123 C20.6682138,43.6363123 20.7312586,43.6296385 20.7953455,43.6265583 C20.8599533,43.6296385 20.9229981,43.6363123 20.987606,43.6363123 C21.1756982,43.6363123 21.3591012,43.6214246 21.5409411,43.5988364 C30.5334187,43.4176171 38.4291256,38.8383658 43.1017335,31.9561412 C47.7743414,38.8383658 55.6700483,43.4176171 64.6625259,43.5988364 C64.8443658,43.6214246 65.0282898,43.6363123 65.2158611,43.6363123 C67.6626236,43.6363123 69.6467104,41.6819166 69.6467104,39.2706225 C69.6467104,36.8598417 67.6626236,34.9049326 65.2158611,34.9049326" id="Fill-8" fill="#FFE431" mask="url(#mask-4)"></path>
                </g>
                <g id="Group-13">
                    <mask id="mask-6" fill="white">
                        <use xlink:href="#path-5"></use>
                    </mask>
                    <g id="Clip-12"></g>
                    <path d="M30.2998182,17.2245561 C30.3003273,17.2071016 30.3049091,17.1906738 30.3049091,17.1727059 L30.3049091,4.51405348 C30.3049091,2.11302674 28.3571273,0.148363636 25.9756,0.148363636 C23.5945818,0.148363636 21.6462909,2.11302674 21.6462909,4.51405348 L21.6462909,16.9868663 L21.6462909,18.0695615 L21.63,18.0695615 C21.2904364,27.4118503 13.6769818,34.881369 4.32905455,34.881369 L4.32905455,34.904984 C1.93836364,34.904984 -0.000254545455,36.859893 -0.000254545455,39.2706738 C-0.000254545455,41.6819679 1.93836364,43.6363636 4.32905455,43.6363636 C4.51283636,43.6363636 4.69203636,43.6209626 4.86970909,43.5988877 C18.9649091,43.3078075 30.3049091,31.7025882 30.3049091,17.4186096 C30.3049091,17.3534118 30.3003273,17.2892406 30.2998182,17.2245561" id="Fill-11" fill="#FFE431" mask="url(#mask-6)"></path>
                </g>
            </g>
        </g>
    </g>
</svg>