<?xml version="1.0" encoding="UTF-8"?>
<svg width="28px" height="28px" viewBox="0 0 28 28" version="1.1" xmlns="http://www.w3.org/2000/svg" xmlns:xlink="http://www.w3.org/1999/xlink">
    <!-- Generator: Sketch 64 (93537) - https://sketch.com -->
    <title>添加</title>
    <desc>Created with Sketch.</desc>
    <g id="Page-1" stroke="none" stroke-width="1" fill="none" fill-rule="evenodd">
        <g id="发送" transform="translate(-331.000000, -521.000000)" fill-rule="nonzero">
            <g id="iPhone-X/Bars/Tab-Bar/3-Items-Copy" transform="translate(0.000000, 509.000000)">
                <g id="添加" transform="translate(331.000000, 12.000000)">
                    <g id="Group">
                        <rect id="Rectangle" fill="#000000" opacity="0" x="0" y="0" width="28" height="28"></rect>
                        <path d="M13.999972,28 C6.26801148,28 5.6e-05,21.7319325 5.6e-05,13.999972 C5.6e-05,6.26801148 6.26801148,0 13.999972,0 C21.7319885,0 27.999944,6.26801148 27.999944,13.999972 C27.999944,21.7319325 21.7319325,28 13.999972,28 Z M13.999972,1.7500525 C7.23451354,1.7500525 1.7500525,7.23451354 1.7500525,13.999972 C1.7500525,20.7654305 7.23451354,26.2499475 13.999972,26.2499475 C20.7654865,26.2499475 26.2499475,20.7654305 26.2499475,13.999972 C26.2499475,7.23451354 20.7654865,1.7500525 13.999972,1.7500525 Z M19.2499615,14.8749703 L14.8749143,14.8749703 L14.8749143,19.2500175 C14.8749143,19.7331845 14.483195,20.1249038 13.999916,20.1249038 C13.516693,20.1249038 13.1249178,19.7331845 13.1249178,19.2500175 L13.1249178,14.8749703 L8.7499825,14.8749703 C8.26675946,14.8749703 7.87492825,14.483195 7.87492825,13.999972 C7.87492825,13.516805 8.26675946,13.1250298 8.7499825,13.1250298 L13.1249178,13.1250298 L13.1249178,8.7499265 C13.1249178,8.26670346 13.516749,7.87504025 13.999916,7.87504025 C14.483139,7.87504025 14.8749143,8.26664746 14.8749143,8.7499265 L14.8749143,13.1250298 L19.2499615,13.1250298 C19.7331845,13.1250298 20.1249598,13.516805 20.1249598,13.999972 C20.1249598,14.483195 19.7332405,14.8749703 19.2499615,14.8749703 Z" id="Shape" fill="#272832"></path>
                    </g>
                </g>
            </g>
        </g>
    </g>
</svg>