<?xml version="1.0" encoding="UTF-8"?>
<svg width="28px" height="28px" viewBox="0 0 28 28" version="1.1" xmlns="http://www.w3.org/2000/svg" xmlns:xlink="http://www.w3.org/1999/xlink">
    <!-- Generator: Sketch 64 (93537) - https://sketch.com -->
    <title>表情</title>
    <desc>Created with Sketch.</desc>
    <g id="Page-1" stroke="none" stroke-width="1" fill="none" fill-rule="evenodd">
        <g id="发送" transform="translate(-291.000000, -521.000000)" fill-rule="nonzero">
            <g id="iPhone-X/Bars/Tab-Bar/3-Items-Copy" transform="translate(0.000000, 509.000000)">
                <g id="表情" transform="translate(291.000000, 12.000000)">
                    <g id="Group">
                        <rect id="Rectangle" fill="#000000" opacity="0" x="0" y="0" width="28" height="28"></rect>
                        <path d="M7.00090313,10.5090124 C7.00090313,11.4708228 7.78068694,12.2506066 8.74254728,12.2506066 C9.70440763,12.2506066 10.4842039,11.4708227 10.4842039,10.5090124 C10.4842039,9.54718325 9.70440763,8.76741819 8.74254728,8.76741819 C7.78068694,8.76741819 7.00090313,9.54718325 7.00090313,10.5090124 Z M17.4502123,10.5090124 C17.4502123,11.4708228 18.230021,12.2506066 19.1918689,12.2506066 C20.1537168,12.2506066 20.9334943,11.4708227 20.9334943,10.5090124 C20.9334943,9.54718325 20.1537105,8.76741819 19.1918689,8.76741819 C18.2300273,8.76741819 17.4502123,9.54718325 17.4502123,10.5090124 Z M13.9669302,21.8284815 C11.5291829,21.8284815 9.09087363,20.6080277 7.69755578,18.6936444 C7.17371094,17.9969668 6.82810153,17.1275562 6.47704578,16.4309036 C6.30427541,15.90704 6.64972247,15.385987 7.00090934,15.2104498 C7.52477291,15.0376295 7.87038234,15.3832389 8.04591956,15.7342509 C8.21868994,16.4309036 8.56976441,16.9547359 8.91536134,17.4758451 C10.3086792,19.2174393 12.0503233,20.089598 13.9640633,20.089598 C15.878634,20.089598 17.7958341,19.2201937 18.8408069,17.6513823 C19.1891332,17.12755 19.5374845,16.4336142 19.7102736,15.9097882 C19.8857796,15.385987 20.4069263,15.2131355 20.7552214,15.385987 C21.2791162,15.5587449 21.4519365,16.0825772 21.2791162,16.4309036 C21.103579,17.3003453 20.5824636,17.9969668 20.0586,18.6936444 C18.8435488,20.6107134 16.4052083,21.8284815 13.9669302,21.8284815 Z M13.9669302,27.9031317 C6.36274828,27.9031317 0.0566488125,21.5972008 0.0566488125,13.992207 C0.0566488125,6.38769416 6.36274828,0.0817383437 13.9669302,0.0817383437 C21.5716617,0.0817383437 27.8777798,6.38769416 27.8777798,13.992207 C27.8777798,21.5972008 21.5716617,27.9031317 13.9669302,27.9031317 Z M13.9669302,1.93748637 C7.29072538,1.93748637 1.91244684,7.31562125 1.91244684,13.992207 C1.91244684,20.6692425 7.29072538,26.04724 13.9669302,26.04724 C20.6436658,26.04724 26.0218194,20.6692425 26.0218194,13.992207 C26.0218194,7.31562125 20.6436658,1.93748637 13.9669302,1.93748637 Z" id="Shape" fill="#272832"></path>
                    </g>
                </g>
            </g>
        </g>
    </g>
</svg>