<?xml version="1.0" encoding="UTF-8"?>
<svg width="8px" height="14px" viewBox="0 0 8 14" version="1.1" xmlns="http://www.w3.org/2000/svg" xmlns:xlink="http://www.w3.org/1999/xlink">
    <!-- Generator: Sketch 64 (93537) - https://sketch.com -->
    <title>左去</title>
    <desc>Created with Sketch.</desc>
    <g id="Page-1" stroke="none" stroke-width="1" fill="none" fill-rule="evenodd" opacity="0.295410156">
        <g id="详细" transform="translate(-351.000000, -139.000000)">
            <g id="头像" transform="translate(0.000000, 109.000000)">
                <g id="左去" transform="translate(355.000000, 37.000000) rotate(-180.000000) translate(-355.000000, -37.000000) translate(348.000000, 30.000000)">
                    <rect id="Rectangle" x="0" y="0" width="14" height="14"></rect>
                    <path d="M2.54564393,3.12897727 L10.7123106,3.12897727 C11.0344767,3.12897727 11.2956439,3.3901445 11.2956439,3.7123106 C11.2956439,4.03447671 11.0344767,4.29564393 10.7123106,4.29564393 L2.54564393,4.29564393 C2.22347783,4.29564393 1.9623106,4.03447671 1.9623106,3.7123106 C1.9623106,3.3901445 2.22347783,3.12897727 2.54564393,3.12897727 Z" id="Rectangle" fill="#272832" transform="translate(6.628977, 3.712311) rotate(-45.000000) translate(-6.628977, -3.712311) "></path>
                    <path d="M2.60915414,8.99773451 L10.7758208,8.99773451 C11.0979869,8.99773451 11.3591541,9.25890174 11.3591541,9.58106785 C11.3591541,9.90323395 11.0979869,10.1644012 10.7758208,10.1644012 L2.60915414,10.1644012 C2.28698803,10.1644012 2.0258208,9.90323395 2.0258208,9.58106785 C2.0258208,9.25890174 2.28698803,8.99773451 2.60915414,8.99773451 Z" id="Rectangle" fill="#272832" transform="translate(6.692487, 9.581068) rotate(-315.000000) translate(-6.692487, -9.581068) "></path>
                </g>
            </g>
        </g>
    </g>
</svg>